<svg xmlns="http://www.w3.org/2000/svg" xmlns:xlink="http://www.w3.org/1999/xlink" width="54.72" height="54.72" viewBox="0 0 54.72 54.72">
                                <defs>
                                    <style>.a {
                                        fill: none;
                                    }

                                    .b {
                                        clip-path: url(#a);
                                    }

                                    .c {
                                        fill: #73c7fc;
                                    }

                                    .d {
                                        fill: #60707d;
                                    }</style>
                                    <clipPath id="a">
                                        <rect class="a" width="54.72" height="54.72"></rect>
                                    </clipPath>
                                </defs>
                                <g class="b">
                                    <path class="c" d="M103.438,115.811a10.809,10.809,0,1,0-11.958,0,20.743,20.743,0,0,0-14.136,14.867h0c.285.343.58.678.882,1.007.073.08.15.157.224.235.232.247.467.49.709.728.1.1.2.193.3.289.223.213.449.422.68.627.114.1.231.2.346.3q.339.29.688.569c.122.1.246.195.369.291q.354.273.718.531c.125.089.249.18.376.268.256.177.516.346.778.513.118.075.233.152.352.226.3.186.611.365.921.54.082.046.162.1.245.141q.6.33,1.224.63l.031.013q.593.284,1.2.538c.126.053.255.1.382.15.294.117.587.232.886.339.159.057.319.108.478.162.272.092.546.181.821.263.175.052.35.1.527.15q.4.111.806.21.274.066.551.127c.271.059.543.113.817.164.186.034.37.069.558.1.283.046.567.085.853.122.18.023.359.05.54.068.315.034.633.059.951.081.154.011.306.027.46.035.475.027.951.042,1.432.042s.957-.015,1.432-.041c.154-.008.307-.024.46-.035.319-.023.637-.047.951-.081.181-.02.36-.045.54-.068.286-.037.57-.076.853-.122.186-.031.372-.065.558-.1.274-.05.547-.1.817-.164q.277-.061.551-.127.405-.1.806-.21c.176-.049.352-.1.527-.15.277-.083.549-.172.821-.263.159-.054.321-.105.478-.162.3-.107.593-.222.886-.339.127-.05.256-.1.382-.15.4-.169.8-.347,1.2-.536l.036-.016q.622-.3,1.224-.63c.083-.045.163-.095.245-.141.311-.175.619-.353.921-.54.119-.073.235-.15.352-.226.262-.168.522-.338.778-.513.126-.087.25-.177.376-.268q.363-.261.718-.531c.124-.1.247-.193.369-.291q.349-.278.688-.569c.116-.1.232-.2.346-.3.231-.2.457-.414.68-.627.1-.1.2-.192.3-.289q.362-.357.709-.728c.074-.079.15-.156.224-.235.3-.329.6-.664.882-1.007h0A20.738,20.738,0,0,0,103.438,115.811Z" transform="translate(-70.331 -86.438)"></path>
                                    <path class="d" d="M43.36,16A27.345,27.345,0,0,0,22.269,60.768c.01.014.011.031.022.044a27.352,27.352,0,0,0,10.331,7.709l.136.059c.32.135.644.26.969.382.128.048.255.1.385.144q.42.15.845.286c.181.058.363.116.546.171q.376.112.756.215c.223.06.447.116.671.17s.455.109.684.158c.255.055.513.1.772.15.208.038.415.078.625.112.287.047.576.083.866.12.187.024.373.051.561.071.328.035.659.059.991.082.154.011.307.027.462.036q.726.041,1.467.042c.493,0,.983-.015,1.469-.04.155-.008.308-.025.462-.036.332-.024.663-.047.991-.082.188-.02.374-.047.561-.071.29-.037.579-.074.866-.12.209-.034.417-.074.625-.112.258-.047.516-.1.772-.15.229-.049.456-.1.684-.158s.449-.11.671-.17c.254-.067.505-.14.756-.215.183-.055.365-.112.546-.171q.425-.137.845-.286c.129-.047.256-.1.385-.144.326-.122.648-.248.969-.382l.136-.059a27.36,27.36,0,0,0,10.331-7.709c.011-.013.012-.031.022-.044A27.348,27.348,0,0,0,43.36,16Zm5.457,28.47a9.661,9.661,0,0,1-1.117.625c-.046.022-.09.045-.136.066a10.262,10.262,0,0,1-8.409,0c-.046-.021-.091-.044-.136-.066A9.585,9.585,0,0,1,37.9,44.47a10.032,10.032,0,1,1,10.915,0ZM37.563,46.4c.077.043.152.088.23.13.272.144.547.279.829.4.216.095.44.175.662.257l.131.048a11.639,11.639,0,0,0,7.888,0l.131-.048c.223-.082.446-.162.662-.257.282-.121.557-.256.829-.4.078-.042.153-.087.23-.13.13-.073.264-.142.391-.221A20.135,20.135,0,0,1,62.721,59.982a25.685,25.685,0,0,1-8.274,6.379l-.04.02c-.326.157-.657.3-.99.449l-.226.1q-.438.183-.885.349c-.124.047-.248.092-.373.136-.264.094-.528.184-.8.27-.166.053-.333.1-.5.152-.237.071-.475.14-.716.2-.2.054-.407.1-.611.151s-.428.1-.644.149c-.236.05-.474.093-.711.136-.192.036-.384.073-.578.1-.267.042-.537.076-.806.109-.171.022-.34.047-.513.066-.307.033-.617.054-.927.076-.138.009-.275.025-.414.032q-.677.036-1.358.036T42,68.859c-.139-.007-.275-.022-.414-.032-.31-.021-.619-.043-.927-.076-.172-.018-.342-.044-.513-.066-.269-.034-.539-.067-.806-.109-.194-.031-.386-.068-.578-.1-.238-.043-.476-.087-.711-.136-.216-.046-.43-.1-.644-.149s-.409-.1-.611-.151c-.24-.064-.479-.133-.716-.2-.167-.049-.334-.1-.5-.152q-.4-.129-.8-.27l-.373-.136q-.446-.167-.885-.349c-.076-.031-.15-.064-.225-.1-.334-.143-.665-.292-.991-.449l-.04-.02A25.66,25.66,0,0,1,24,59.983,20.129,20.129,0,0,1,37.174,46.176C37.3,46.254,37.433,46.323,37.563,46.4Zm26.525,11.85A21.974,21.974,0,0,0,51.278,44.864a11.856,11.856,0,1,0-15.835,0A21.977,21.977,0,0,0,22.632,58.246a25.535,25.535,0,1,1,41.457,0Z" transform="translate(-16 -16)"></path>
                                </g>
                            </svg>